<svg width="20" height="20" viewBox="0 0 20 20" fill="none" xmlns="http://www.w3.org/2000/svg">
<path fill-rule="evenodd" clip-rule="evenodd" d="M17.7082 10.0003C17.7082 14.2578 14.2573 17.7087 9.99984 17.7087C5.74234 17.7087 2.2915 14.2578 2.2915 10.0003C2.2915 5.74283 5.74234 2.29199 9.99984 2.29199C14.2573 2.29199 17.7082 5.74283 17.7082 10.0003Z" stroke="#010D10" stroke-width="1.5" stroke-linecap="round" stroke-linejoin="round"/>
<path d="M12.0834 11.3439C12.0834 11.8182 11.9352 12.2266 11.639 12.5692C11.3428 12.9118 10.958 13.1234 10.4846 13.204V14.0178C10.4846 14.0612 10.4712 14.0968 10.4444 14.1247C10.4176 14.1526 10.3834 14.1666 10.3417 14.1666H9.73884C9.70014 14.1666 9.66665 14.1519 9.63837 14.1224C9.61008 14.093 9.59594 14.0581 9.59594 14.0178V13.204C9.39945 13.1761 9.20966 13.128 9.02656 13.0598C8.84347 12.9916 8.69238 12.9226 8.57329 12.8529C8.4542 12.7831 8.34405 12.7087 8.24282 12.6297C8.1416 12.5506 8.07238 12.4925 8.03517 12.4553C7.99795 12.4181 7.9719 12.3902 7.95702 12.3716C7.90641 12.3065 7.90343 12.2429 7.94809 12.1809L8.40806 11.5531C8.4289 11.5221 8.46313 11.5035 8.51077 11.4973C8.55543 11.4911 8.59115 11.5051 8.61795 11.5392L8.62688 11.5485C8.9633 11.8554 9.32502 12.0491 9.71205 12.1298C9.82221 12.1546 9.93236 12.167 10.0425 12.167C10.2837 12.167 10.4958 12.1003 10.6789 11.967C10.862 11.8337 10.9535 11.6446 10.9535 11.3997C10.9535 11.3129 10.9312 11.2307 10.8865 11.1532C10.8419 11.0757 10.792 11.0106 10.7369 10.9579C10.6819 10.9052 10.5948 10.847 10.4757 10.7835C10.3566 10.7199 10.2584 10.6703 10.181 10.6347C10.1035 10.599 9.98446 10.5487 9.82369 10.4836C9.70758 10.4339 9.61604 10.3952 9.54905 10.3673C9.48207 10.3394 9.39052 10.2983 9.27441 10.2441C9.1583 10.1898 9.06526 10.1418 8.9953 10.0999C8.92534 10.058 8.84123 10.003 8.74299 9.93481C8.64474 9.86661 8.5651 9.80073 8.50407 9.73718C8.44304 9.67362 8.37829 9.59767 8.30981 9.50931C8.24134 9.42096 8.18849 9.33105 8.15128 9.23959C8.11406 9.14814 8.0828 9.04506 8.0575 8.93035C8.03219 8.81564 8.01954 8.69474 8.01954 8.56763C8.01954 8.1398 8.16542 7.76468 8.45718 7.44226C8.74894 7.11983 9.12853 6.91212 9.59594 6.81912V5.98206C9.59594 5.94176 9.61008 5.90688 9.63837 5.87743C9.66665 5.84798 9.70014 5.83325 9.73884 5.83325H10.3417C10.3834 5.83325 10.4176 5.8472 10.4444 5.8751C10.4712 5.90301 10.4846 5.93866 10.4846 5.98206V6.80051C10.6543 6.81912 10.8188 6.85477 10.9781 6.90747C11.1374 6.96017 11.2669 7.0121 11.3666 7.06326C11.4663 7.11441 11.5609 7.17254 11.6502 7.23764C11.7395 7.30275 11.7975 7.3477 11.8243 7.3725C11.8511 7.3973 11.8735 7.419 11.8913 7.4376C11.9419 7.49341 11.9494 7.55231 11.9137 7.61432L11.5519 8.29326C11.5281 8.33976 11.4939 8.36456 11.4492 8.36766C11.4075 8.37697 11.3673 8.36611 11.3286 8.33511C11.3197 8.32581 11.2981 8.30721 11.2639 8.27931C11.2297 8.25141 11.1716 8.21033 11.0897 8.15608C11.0079 8.10182 10.9208 8.05222 10.8285 8.00727C10.7362 7.96231 10.6253 7.92201 10.4958 7.88636C10.3663 7.85071 10.239 7.83288 10.114 7.83288C9.83114 7.83288 9.60041 7.89953 9.42178 8.03284C9.24315 8.16615 9.15383 8.33821 9.15383 8.54903C9.15383 8.62963 9.16649 8.70404 9.19179 8.77224C9.2171 8.84044 9.26101 8.90477 9.32353 8.96523C9.38605 9.02568 9.44485 9.07683 9.49993 9.11869C9.55501 9.16054 9.63837 9.20859 9.75001 9.26285C9.86165 9.3171 9.95171 9.35895 10.0202 9.3884C10.0887 9.41786 10.1929 9.46048 10.3328 9.51629C10.4906 9.57829 10.6112 9.62712 10.6945 9.66277C10.7779 9.69842 10.891 9.75268 11.0339 9.82553C11.1768 9.89839 11.2892 9.96427 11.3711 10.0232C11.4529 10.0821 11.5452 10.1596 11.6479 10.2557C11.7507 10.3518 11.8296 10.4502 11.8846 10.551C11.9397 10.6517 11.9866 10.7703 12.0253 10.9067C12.064 11.0431 12.0834 11.1888 12.0834 11.3439Z" fill="#010D10"/>
</svg>
